<svg width="26" height="27" viewBox="0 0 26 27" fill="none" xmlns="http://www.w3.org/2000/svg">
<g id="discord-alt 1">
<path id="Vector" d="M15.9567 5.55859C15.7449 5.93799 15.5561 6.32981 15.3914 6.73193C13.773 6.47598 12.1245 6.47598 10.5061 6.73193C10.3414 6.32981 10.1526 5.93799 9.94074 5.55859C8.41625 5.81907 6.93424 6.28557 5.53541 6.94526C3.03401 10.5552 1.89961 14.9377 2.33541 19.3079C3.96553 20.5334 5.79509 21.468 7.74341 22.0706C8.18705 21.4846 8.58298 20.8639 8.92741 20.2146C8.29175 19.9802 7.68079 19.6837 7.10341 19.3293C7.26177 19.2239 7.41156 19.1062 7.55141 18.9773C9.2351 19.7883 11.0799 20.2094 12.9487 20.2094C14.8176 20.2094 16.6624 19.7883 18.3461 18.9773C18.4954 19.1053 18.6447 19.2226 18.7941 19.3293C18.2135 19.6809 17.6032 19.9807 16.9701 20.2253C17.3002 20.8893 17.6856 21.5244 18.1221 22.1239C20.0679 21.5234 21.8944 20.5886 23.5194 19.3613C23.9657 14.9903 22.8303 10.6041 20.3194 6.99859C18.9363 6.32525 17.4689 5.84091 15.9567 5.55859ZM9.40741 16.8119C8.87363 16.7736 8.37545 16.53 8.01745 16.1322C7.65946 15.7344 7.46948 15.2134 7.48741 14.6786C7.46678 14.143 7.65582 13.6205 8.01435 13.2222C8.37289 12.8238 8.87264 12.581 9.40741 12.5453C9.94217 12.581 10.4419 12.8238 10.8005 13.2222C11.159 13.6205 11.348 14.143 11.3274 14.6786C11.348 15.2142 11.159 15.7366 10.8005 16.135C10.4419 16.5334 9.94217 16.7762 9.40741 16.8119ZM16.4901 16.8119C15.9563 16.7736 15.4581 16.53 15.1001 16.1322C14.7421 15.7344 14.5521 15.2134 14.5701 14.6786C14.5494 14.143 14.7385 13.6205 15.097 13.2222C15.4556 12.8238 15.9553 12.581 16.4901 12.5453C17.0258 12.5783 17.5272 12.8204 17.8863 13.2193C18.2454 13.6183 18.4335 14.1423 18.4101 14.6786C18.4335 15.2149 18.2454 15.7389 17.8863 16.1379C17.5272 16.5368 17.0258 16.7789 16.4901 16.8119Z" fill="white"/>
</g>
</svg>
