<svg width="26" height="27" viewBox="0 0 26 27" fill="none" xmlns="http://www.w3.org/2000/svg">
<g id="instagram (1) 1">
<path id="Vector" d="M12.9342 11.0174C12.411 11.0174 11.8996 11.1726 11.4646 11.4632C11.0296 11.7539 10.6905 12.1671 10.4903 12.6504C10.2901 13.1338 10.2377 13.6657 10.3397 14.1788C10.4418 14.692 10.6938 15.1633 11.0637 15.5333C11.4337 15.9032 11.905 16.1552 12.4182 16.2573C12.9313 16.3593 13.4632 16.3069 13.9466 16.1067C14.4299 15.9065 14.8431 15.5675 15.1338 15.1324C15.4244 14.6974 15.5796 14.186 15.5796 13.6628C15.5796 13.3154 15.5112 12.9714 15.3782 12.6504C15.2453 12.3295 15.0504 12.0379 14.8048 11.7922C14.5591 11.5466 14.2675 11.3517 13.9466 11.2188C13.6256 11.0858 13.2816 11.0174 12.9342 11.0174ZM23.5262 8.40409C23.5206 7.58037 23.3689 6.76417 23.0782 5.99343C22.8641 5.42944 22.5329 4.91726 22.1063 4.49069C21.6797 4.06412 21.1676 3.73286 20.6036 3.51876C19.8328 3.22806 19.0166 3.07637 18.1929 3.07076C16.8169 2.99609 16.4116 2.99609 12.9342 2.99609C9.45691 2.99609 9.05158 2.99609 7.67558 3.07076C6.85185 3.07637 6.03565 3.22806 5.26491 3.51876C4.70092 3.73286 4.18874 4.06412 3.76218 4.49069C3.33561 4.91726 3.00434 5.42944 2.79024 5.99343C2.49954 6.76417 2.34786 7.58037 2.34224 8.40409C2.26758 9.78009 2.26758 10.1854 2.26758 13.6628C2.26758 17.1401 2.26758 17.5454 2.34224 18.9214C2.35373 19.7481 2.5052 20.5668 2.79024 21.3428C3.00339 21.9042 3.33438 22.4134 3.76091 22.8361C4.18565 23.2652 4.69893 23.5965 5.26491 23.8068C6.03565 24.0975 6.85185 24.2491 7.67558 24.2548C9.05158 24.3294 9.45691 24.3294 12.9342 24.3294C16.4116 24.3294 16.8169 24.3294 18.1929 24.2548C19.0166 24.2491 19.8328 24.0975 20.6036 23.8068C21.1696 23.5965 21.6828 23.2652 22.1076 22.8361C22.5341 22.4134 22.8651 21.9042 23.0782 21.3428C23.3687 20.5682 23.5203 19.7486 23.5262 18.9214C23.6009 17.5454 23.6009 17.1401 23.6009 13.6628C23.6009 10.1854 23.6009 9.78009 23.5262 8.40409ZM20.8169 16.9374C20.7827 17.5957 20.6422 18.244 20.4009 18.8574C20.1938 19.3691 19.886 19.8339 19.4957 20.2242C19.1054 20.6145 18.6406 20.9224 18.1289 21.1294C17.5097 21.3573 16.8577 21.4833 16.1982 21.5028C15.3556 21.5028 15.1316 21.5028 12.9342 21.5028C10.7369 21.5028 10.5129 21.5028 9.67024 21.5028C9.01076 21.4833 8.35877 21.3573 7.73958 21.1294C7.21062 20.9329 6.73294 20.6193 6.34224 20.2121C5.95576 19.8294 5.65728 19.3672 5.46758 18.8574C5.23884 18.2389 5.11623 17.5861 5.10491 16.9268C5.10491 16.0841 5.10491 15.8601 5.10491 13.6628C5.10491 11.4654 5.10491 11.2414 5.10491 10.3988C5.11623 9.73937 5.23884 9.08664 5.46758 8.46809C5.66414 7.93914 5.97774 7.46146 6.38491 7.07076C6.76927 6.68636 7.23106 6.38819 7.73958 6.19609C8.35877 5.96826 9.01076 5.84218 9.67024 5.82276C10.5129 5.82276 10.7369 5.82276 12.9342 5.82276C15.1316 5.82276 15.3556 5.82276 16.1982 5.82276C16.8577 5.84218 17.5097 5.96826 18.1289 6.19609C18.6579 6.39266 19.1355 6.70625 19.5262 7.11343C19.9127 7.49609 20.2112 7.95837 20.4009 8.46809C20.6287 9.08728 20.7548 9.73927 20.7742 10.3988C20.7742 11.2414 20.7742 11.4654 20.7742 13.6628C20.7742 15.8601 20.8489 16.0841 20.8169 16.9268V16.9374ZM19.1102 9.00143C18.9832 8.65688 18.783 8.34398 18.5233 8.08432C18.2637 7.82466 17.9508 7.62443 17.6062 7.49743C17.1331 7.33344 16.6349 7.254 16.1342 7.26276C15.3022 7.26276 15.0676 7.26276 12.9342 7.26276C10.8009 7.26276 10.5662 7.26276 9.73424 7.26276C9.23106 7.26768 8.73272 7.36157 8.26224 7.54009C7.92297 7.66133 7.61338 7.85339 7.35407 8.10351C7.09475 8.35363 6.89164 8.65608 6.75824 8.99076C6.60334 9.46582 6.52766 9.96313 6.53424 10.4628C6.53424 11.2948 6.53424 11.5294 6.53424 13.6628C6.53424 15.7961 6.53424 16.0308 6.53424 16.8628C6.54482 17.3654 6.63853 17.8628 6.81158 18.3348C6.93858 18.6793 7.13881 18.9922 7.39847 19.2519C7.65813 19.5115 7.97103 19.7118 8.31558 19.8388C8.77069 20.0061 9.24961 20.0998 9.73424 20.1161C10.5662 20.1161 10.8009 20.1161 12.9342 20.1161C15.0676 20.1161 15.3022 20.1161 16.1342 20.1161C16.6374 20.1112 17.1358 20.0173 17.6062 19.8388C17.9508 19.7118 18.2637 19.5115 18.5233 19.2519C18.783 18.9922 18.9832 18.6793 19.1102 18.3348C19.2888 17.8643 19.3827 17.3659 19.3876 16.8628C19.3876 16.0308 19.3876 15.7961 19.3876 13.6628C19.3876 11.5294 19.3876 11.2948 19.3876 10.4628C19.3879 9.95908 19.2938 9.4598 19.1102 8.99076V9.00143ZM12.9342 17.7374C12.3997 17.7374 11.8703 17.632 11.3766 17.4271C10.8828 17.2222 10.4343 16.9218 10.0568 16.5433C9.67927 16.1648 9.38014 15.7156 9.17653 15.2213C8.97292 14.727 8.86884 14.1973 8.87024 13.6628C8.87025 12.8564 9.10949 12.0682 9.5577 11.3979C10.0059 10.7276 10.6429 10.2053 11.3881 9.89725C12.1332 9.58916 12.9531 9.5091 13.7438 9.66718C14.5345 9.82527 15.2605 10.2144 15.8299 10.7853C16.3993 11.3562 16.7866 12.0833 16.9426 12.8744C17.0986 13.6655 17.0164 14.4851 16.7063 15.2295C16.3963 15.9738 15.8724 16.6095 15.2009 17.0559C14.5294 17.5024 13.7406 17.7395 12.9342 17.7374ZM17.2009 10.3881C16.9651 10.3631 16.7469 10.2518 16.5883 10.0755C16.4297 9.89926 16.342 9.67054 16.342 9.43343C16.342 9.19631 16.4297 8.96759 16.5883 8.79133C16.7469 8.61506 16.9651 8.50372 17.2009 8.47876C17.4367 8.50372 17.6549 8.61506 17.8135 8.79133C17.9721 8.96759 18.0599 9.19631 18.0599 9.43343C18.0599 9.67054 17.9721 9.89926 17.8135 10.0755C17.6549 10.2518 17.4367 10.3631 17.2009 10.3881Z" fill="white"/>
</g>
</svg>
