<svg width="221" height="100" viewBox="0 0 221 100" fill="none" xmlns="http://www.w3.org/2000/svg">
<path d="M27.5352 67.006V35.0859H40.1915V53.6796L27.5352 67.006Z" fill="#9192FF"/>
<path d="M53.8709 71.8452V35.0859H40.377V53.6889L53.8709 71.8452Z" fill="#ADAEFF"/>
<path d="M50.5296 27.6445H30.9122C29.051 27.6445 27.5527 29.1521 27.5527 31.004V34.9312H53.8984V31.004C53.8984 29.1521 52.3908 27.6445 50.5296 27.6445ZM31.8149 32.8001C31.1356 32.8001 30.5865 32.2511 30.5865 31.5717C30.5865 30.8924 31.1356 30.3433 31.8149 30.3433C32.4943 30.3433 33.0434 30.8924 33.0434 31.5717C33.0434 32.2511 32.4943 32.8001 31.8149 32.8001ZM36.6355 32.8001C35.9562 32.8001 35.4071 32.2511 35.4071 31.5717C35.4071 30.8924 35.9562 30.3433 36.6355 30.3433C37.3149 30.3433 37.8639 30.8924 37.8639 31.5717C37.8639 32.2511 37.3149 32.8001 36.6355 32.8001ZM41.4561 32.8001C40.7768 32.8001 40.2277 32.2511 40.2277 31.5717C40.2277 30.8924 40.7768 30.3433 41.4561 30.3433C42.1354 30.3433 42.6845 30.8924 42.6845 31.5717C42.6845 32.2511 42.1354 32.8001 41.4561 32.8001Z" fill="#6166F1"/>
<path d="M106.691 45.5746L101.321 52.3774V39.9258H97.7012V59.6641H101.321V57.8587L103.834 54.5364L106.691 59.6641H110.832L106.151 51.4468L110.832 45.5746H106.691Z" fill="#232438"/>
<path d="M93.2789 47.1308C92.7112 46.5538 92.0412 46.0978 91.2781 45.7721C90.515 45.437 89.7054 45.2695 88.8399 45.2695C88.0396 45.2695 87.2672 45.4184 86.532 45.7069C85.8061 45.9861 85.1454 46.3956 84.5684 46.9167L83.3772 45.5487H82.5117V59.6661H86.1132V51.5977C86.1132 51.2255 86.1876 50.8811 86.3272 50.5554C86.4668 50.2204 86.6623 49.9319 86.9042 49.6806C87.1462 49.4387 87.444 49.2433 87.7697 49.1037C88.1047 48.9641 88.4583 48.8896 88.8399 48.8896C89.2121 48.8896 89.5565 48.9641 89.8822 49.1037C90.2079 49.2433 90.4964 49.4387 90.7383 49.6806C90.9896 49.9226 91.1757 50.2204 91.3153 50.5554C91.4549 50.8811 91.5294 51.2255 91.5294 51.5977V59.6661H95.1308V51.5977C95.1308 50.7322 94.9633 49.9133 94.6283 49.1409C94.3026 48.3685 93.8559 47.6984 93.2789 47.1308Z" fill="#232438"/>
<path d="M79.7583 45.5469H76.1289V59.6643H79.7583V45.5469Z" fill="#232438"/>
<path d="M65.0825 40.7539H61.2949V59.664H74.5376V55.8764H65.0825V40.7539Z" fill="#232438"/>
<path d="M115.708 49.7981C116.034 49.4258 116.415 49.1466 116.843 48.9419C117.281 48.7372 117.746 48.6348 118.239 48.6348C118.593 48.6348 118.937 48.6906 119.272 48.793C119.607 48.8954 119.914 49.0536 120.193 49.2583C120.482 49.463 120.742 49.7143 120.975 50.0121C121.208 50.3006 121.385 50.6356 121.515 50.9986L124.149 48.3463C123.832 47.8065 123.451 47.3319 123.013 46.9225C122.585 46.513 122.11 46.1594 121.589 45.8802C121.078 45.5917 120.538 45.3683 119.97 45.2194C119.412 45.0705 118.835 44.9961 118.239 44.9961C117.243 44.9961 116.313 45.2008 115.429 45.601C114.554 46.0012 113.791 46.5595 113.13 47.2668C112.479 47.9647 111.967 48.7744 111.585 49.7236C111.204 50.6635 111.018 51.6779 111.018 52.7574C111.018 53.7532 111.204 54.6838 111.585 55.5492C111.967 56.424 112.479 57.1778 113.13 57.8293C113.791 58.4807 114.554 58.9925 115.429 59.3741C116.303 59.7463 117.243 59.9231 118.239 59.9231C118.825 59.9231 119.402 59.8487 119.951 59.7091C120.519 59.5788 121.05 59.3834 121.543 59.1135C122.055 58.8529 122.52 58.5272 122.957 58.155C123.395 57.7734 123.786 57.3546 124.121 56.88L121.487 54.2278C121.347 54.5442 121.161 54.8327 120.938 55.0933C120.715 55.3445 120.463 55.5679 120.175 55.754C119.896 55.9308 119.589 56.0704 119.263 56.1635C118.937 56.2565 118.602 56.3124 118.248 56.3124C117.755 56.3124 117.29 56.2193 116.853 56.0332C116.424 55.847 116.043 55.5958 115.717 55.2701C115.401 54.9444 115.15 54.5721 114.963 54.1347C114.777 53.7066 114.684 53.2413 114.684 52.7481C114.684 52.1432 114.777 51.5848 114.963 51.0823C115.14 50.5891 115.391 50.161 115.708 49.7981Z" fill="#232438"/>
<path d="M141.338 59.6641H141.347V60.1108V63.3865L142.79 61.4695L144.967 63.8612V59.6641V56.7606V39.9258H141.338V59.6641Z" fill="#232438"/>
<path d="M172.085 49.7981C172.411 49.4258 172.792 49.1466 173.22 48.9419C173.658 48.7372 174.123 48.6348 174.616 48.6348C174.97 48.6348 175.314 48.6906 175.649 48.793C175.984 48.8954 176.291 49.0536 176.57 49.2583C176.859 49.463 177.119 49.7143 177.352 50.0121C177.585 50.3006 177.762 50.6356 177.892 50.9986L180.525 48.3463C180.209 47.8065 179.828 47.3319 179.39 46.9225C178.962 46.513 178.487 46.1594 177.966 45.8802C177.454 45.5917 176.915 45.3683 176.347 45.2194C175.779 45.0705 175.212 44.9961 174.616 44.9961C173.62 44.9961 172.69 45.2008 171.806 45.601C170.931 46.0012 170.168 46.5595 169.507 47.2668C168.856 47.9647 168.344 48.7744 167.962 49.7236C167.581 50.6635 167.395 51.6779 167.395 52.7574C167.395 53.7532 167.581 54.6838 167.962 55.5492C168.344 56.424 168.856 57.1778 169.507 57.8293C170.168 58.4807 170.931 58.9925 171.806 59.3741C172.68 59.7463 173.62 59.9231 174.616 59.9231C175.202 59.9231 175.779 59.8487 176.328 59.7091C176.896 59.5788 177.427 59.3834 177.929 59.1135C178.441 58.8529 178.906 58.5272 179.334 58.155C179.772 57.7734 180.163 57.3546 180.498 56.88L177.864 54.2278C177.724 54.5442 177.538 54.8327 177.306 55.0933C177.082 55.3445 176.831 55.5679 176.542 55.754C176.263 55.9308 175.956 56.0704 175.63 56.1635C175.305 56.2565 174.97 56.3124 174.616 56.3124C174.123 56.3124 173.658 56.2193 173.22 56.0332C172.792 55.847 172.411 55.5958 172.085 55.2701C171.768 54.9444 171.517 54.5721 171.331 54.1347C171.145 53.6973 171.052 53.2413 171.052 52.7481C171.052 52.1432 171.145 51.5848 171.331 51.0823C171.517 50.5891 171.768 50.161 172.085 49.7981Z" fill="#232438"/>
<path d="M192.102 49.156V45.5731H186.639V39.9336H183.056V45.5731H181.307V49.156H183.056V53.353C183.056 54.2185 183.214 55.0375 183.54 55.8006C183.875 56.5637 184.331 57.2337 184.899 57.82C185.476 58.3877 186.155 58.8437 186.918 59.1787C187.681 59.5044 188.5 59.6626 189.375 59.6626H192.102V56.0797H189.366C188.984 56.0797 188.631 56.0053 188.296 55.8657C187.961 55.7168 187.672 55.5214 187.421 55.2701C187.179 55.0281 186.983 54.7397 186.844 54.4139C186.704 54.0789 186.63 53.7253 186.63 53.3437V49.1467H192.102V49.156Z" fill="#232438"/>
<path d="M165.311 46.7922C164.874 46.4013 164.399 46.0849 163.888 45.815C163.385 45.5545 162.855 45.3497 162.296 45.2101C161.729 45.0705 161.161 44.9961 160.565 44.9961C159.57 44.9961 158.639 45.1729 157.755 45.5358C156.88 45.8988 156.117 46.4013 155.456 47.0527C154.805 47.7042 154.293 48.4859 153.911 49.4165C153.53 50.3378 153.344 51.3615 153.344 52.4782C153.344 53.567 153.53 54.5721 153.911 55.4841C154.293 56.3868 154.805 57.1685 155.456 57.8293C156.117 58.49 156.88 59.0018 157.755 59.3741C158.63 59.7463 159.57 59.9231 160.565 59.9231C161.152 59.9231 161.729 59.8487 162.278 59.7091C162.836 59.5788 163.376 59.3834 163.878 59.1135C164.39 58.8529 164.855 58.5272 165.284 58.155C165.721 57.7734 166.112 57.3546 166.447 56.88L163.813 54.2278C163.674 54.5442 163.487 54.8327 163.264 55.0933C163.041 55.3445 162.789 55.5679 162.501 55.754C162.222 55.9308 161.915 56.0704 161.589 56.1635C161.263 56.2565 160.928 56.3124 160.575 56.3124C160.435 56.3124 160.295 56.3031 160.156 56.2937C160.016 56.2751 159.877 56.2472 159.737 56.2007L166.484 48.0671C166.14 47.6018 165.749 47.1737 165.311 46.7922ZM157.373 54.3488C157.299 54.2278 157.243 54.0882 157.206 53.93C157.169 53.7718 157.122 53.6136 157.085 53.4461C157.057 53.2692 157.038 53.1017 157.02 52.9342C157.01 52.7667 157.01 52.6178 157.01 52.4875C157.01 51.9012 157.103 51.3708 157.29 50.9055C157.476 50.4309 157.727 50.0307 158.043 49.6957C158.369 49.3607 158.741 49.1094 159.179 48.9326C159.616 48.7465 160.081 48.6534 160.575 48.6534C160.751 48.6534 160.919 48.6627 161.077 48.6813C161.245 48.6999 161.412 48.7372 161.58 48.8023L157.373 54.3488Z" fill="#232438"/>
<path d="M137.243 47.0645C136.591 46.4037 135.828 45.9012 134.944 45.5476C134.079 45.1846 133.139 45.0078 132.134 45.0078C131.138 45.0078 130.207 45.1939 129.323 45.5755C128.458 45.957 127.685 46.4782 127.025 47.1482C126.373 47.809 125.861 48.5907 125.48 49.512C125.098 50.424 124.912 51.4197 124.912 52.4899C124.912 53.5415 125.098 54.528 125.48 55.44C125.861 56.3427 126.373 57.1337 127.025 57.8037C127.685 58.4645 128.448 58.9856 129.323 59.3765C130.198 59.758 131.138 59.9442 132.134 59.9442C133.139 59.9442 134.069 59.758 134.944 59.3765C135.828 58.9856 136.591 58.4645 137.243 57.8037C137.894 57.1337 138.406 56.352 138.788 55.44C139.169 54.528 139.355 53.5415 139.355 52.4899C139.355 51.3639 139.169 50.3495 138.788 49.4282C138.406 48.4976 137.885 47.7159 137.243 47.0645ZM135.428 54.0534C135.242 54.528 134.991 54.9282 134.665 55.2632C134.339 55.5982 133.958 55.8588 133.52 56.0449C133.092 56.231 132.627 56.3241 132.134 56.3241C131.64 56.3241 131.175 56.231 130.738 56.0356C130.31 55.8308 129.928 55.561 129.602 55.2166C129.286 54.8723 129.035 54.4722 128.849 54.0068C128.662 53.5415 128.569 53.039 128.569 52.4899C128.569 51.913 128.662 51.3825 128.849 50.9172C129.035 50.4426 129.286 50.0424 129.602 49.7074C129.928 49.3631 130.31 49.1025 130.738 48.9257C131.175 48.7396 131.64 48.6465 132.134 48.6465C132.627 48.6465 133.083 48.7396 133.52 48.9257C133.958 49.1025 134.339 49.3631 134.665 49.7074C134.991 50.0424 135.242 50.4426 135.428 50.9172C135.623 51.3825 135.717 51.9037 135.717 52.4899C135.726 53.0483 135.623 53.5695 135.428 54.0534Z" fill="#232438"/>
<path d="M147.721 56.7606V59.6641V60.1108V63.3865L149.172 61.4695L151.341 63.8612V59.6641V56.7606V39.9258H147.721V56.7606Z" fill="#232438"/>
<path d="M77.9449 43.4444C79.4354 43.4444 80.6437 42.2361 80.6437 40.7457C80.6437 39.2552 79.4354 38.0469 77.9449 38.0469C76.4544 38.0469 75.2461 39.2552 75.2461 40.7457C75.2461 42.2361 76.4544 43.4444 77.9449 43.4444Z" fill="#6166F1"/>
</svg>
