<svg width="18" height="14" viewBox="0 0 18 14" fill="none" xmlns="http://www.w3.org/2000/svg">
<g id="mailIcon">
<path id="Vector" d="M0.826172 5.09375V11.7497C0.826172 12.1911 1.00149 12.6143 1.31355 12.9264C1.62561 13.2384 2.04885 13.4137 2.49017 13.4137H15.8022C16.2435 13.4137 16.6667 13.2384 16.9788 12.9264C17.2909 12.6143 17.4662 12.1911 17.4662 11.7497V5.09375L9.14617 8.42175L0.826172 5.09375Z" fill="black"/>
<path id="Vector_2" d="M2.49017 0.101562C2.04885 0.101563 1.62561 0.276876 1.31355 0.588937C1.00149 0.900997 0.826172 1.32424 0.826172 1.76556L0.826172 3.42956L9.14617 6.75756L17.4662 3.42956V1.76556C17.4662 1.32424 17.2909 0.900997 16.9788 0.588937C16.6667 0.276876 16.2435 0.101563 15.8022 0.101562H2.49017Z" fill="black"/>
</g>
</svg>
