<svg width="26" height="27" viewBox="0 0 26 27" fill="none" xmlns="http://www.w3.org/2000/svg">
<g id="twitter (1) 1">
<path id="Vector" d="M23.3665 7.12361C22.5648 7.47144 21.7169 7.70138 20.8492 7.80628C21.7646 7.25942 22.4506 6.39911 22.7799 5.38494C21.9197 5.89701 20.978 6.25779 19.9959 6.45161C19.3394 5.73969 18.4652 5.26579 17.5103 5.10425C16.5555 4.94271 15.574 5.10266 14.7199 5.55901C13.8658 6.01536 13.1873 6.74231 12.7908 7.62583C12.3943 8.50936 12.3023 9.49949 12.5292 10.4409C10.7899 10.353 9.08861 9.90009 7.53577 9.11173C5.98293 8.32336 4.61331 7.21715 3.51587 5.86494C3.13095 6.53712 2.92869 7.29835 2.9292 8.07294C2.92784 8.79228 3.10437 9.5008 3.44308 10.1354C3.78178 10.77 4.27216 11.311 4.87054 11.7103C4.17505 11.6914 3.49441 11.5047 2.88654 11.1663V11.2196C2.89175 12.2275 3.24493 13.2026 3.88634 13.9801C4.52775 14.7576 5.41801 15.2896 6.40654 15.4863C6.02601 15.6021 5.63094 15.6631 5.2332 15.6676C4.95789 15.6644 4.68325 15.6394 4.41187 15.5929C4.69337 16.4599 5.23813 17.2176 5.97035 17.7606C6.70256 18.3035 7.58582 18.6047 8.4972 18.6223C6.95822 19.8332 5.05815 20.4941 3.09987 20.4996C2.74332 20.5008 2.38705 20.4794 2.0332 20.4356C4.03259 21.7265 6.3626 22.4118 8.74254 22.4089C10.3849 22.426 12.0141 22.1156 13.5352 21.496C15.0562 20.8763 16.4386 19.9598 17.6014 18.7999C18.7643 17.64 19.6844 16.26 20.3079 14.7406C20.9315 13.2211 21.246 11.5927 21.2332 9.95027C21.2332 9.76894 21.2332 9.57694 21.2332 9.38494C22.0702 8.76074 22.7921 7.99553 23.3665 7.12361Z" fill="white"/>
</g>
</svg>
